<?xml version="1.0" encoding="iso-8859-1"?>
<!-- Generator: Adobe Illustrator 18.0.0, SVG Export Plug-In . SVG Version: 6.00 Build 0)  -->
<!DOCTYPE svg PUBLIC "-//W3C//DTD SVG 1.1//EN" "http://www.w3.org/Graphics/SVG/1.1/DTD/svg11.dtd">
<svg version="1.1" id="Capa_1" xmlns="http://www.w3.org/2000/svg" xmlns:xlink="http://www.w3.org/1999/xlink" x="0px" y="0px"
	 viewBox="0 0 60.002 60.002" style="enable-background:new 0 0 60.002 60.002;" xml:space="preserve">
<g>
	<path d="M59.795,26.569c-0.609-2.576-2.455-4.446-4.388-4.446c-0.234,0-0.469,0.027-0.696,0.082
		c-0.186,0.044-0.365,0.112-0.54,0.194c-2.333-5.721-5.968-9.411-9.711-11.782l1.335-2.67c0.247-0.494,0.047-1.095-0.447-1.342
		c-0.493-0.245-1.094-0.047-1.342,0.447L42.727,9.61c-0.619-0.328-1.236-0.629-1.845-0.895l0.967-2.9
		c0.175-0.524-0.108-1.091-0.632-1.265c-0.529-0.176-1.09,0.108-1.265,0.632l-0.933,2.8c-0.694-0.246-1.368-0.456-2.015-0.634
		l0.844-2.533c0.175-0.524-0.108-1.091-0.632-1.265c-0.528-0.177-1.09,0.108-1.265,0.632l-0.899,2.696
		c-1.268-0.26-2.345-0.396-3.153-0.469V4.499c0-0.553-0.447-1-1-1s-1,0.447-1,1V6.34c-0.527,0.022-1.444,0.085-2.635,0.264
		l-0.378-2.269c-0.09-0.545-0.606-0.918-1.15-0.822c-0.545,0.091-0.913,0.606-0.822,1.15l0.385,2.308
		c-1.076,0.237-2.264,0.56-3.519,1.004l-0.931-2.793c-0.175-0.523-0.736-0.808-1.265-0.632c-0.523,0.174-0.807,0.74-0.632,1.265
		l0.964,2.892c-0.866,0.377-1.747,0.821-2.63,1.327l-1.492-2.983c-0.247-0.494-0.848-0.692-1.342-0.447
		c-0.494,0.247-0.694,0.848-0.447,1.342l1.576,3.152c-0.884,0.605-1.756,1.295-2.604,2.064l-2.37-2.37
		c-0.391-0.391-1.023-0.391-1.414,0s-0.391,1.023,0,1.414l2.358,2.358c-3.057,3.275-5.613,7.845-6.797,14.243
		c-0.015,0.083-0.025,0.166-0.04,0.249c-0.254-0.07-0.512-0.118-0.776-0.118C1.73,28.939,0,31.322,0,34.363s1.73,5.424,3.939,5.424
		c0.404,0,0.798-0.102,1.177-0.267c0.701,2.671,1.863,5.179,3.458,7.379c3.18,4.382,9.447,9.605,21.256,9.605l0.548-0.004
		l0.575,0.004c9.346,0,16.695-3.321,21.256-9.605c2.88-3.971,4.346-8.946,4.229-14.076c0.034,0.001,0.069,0.014,0.104,0.014
		c0.228,0,0.454-0.026,0.673-0.079C59.363,32.245,60.496,29.527,59.795,26.569z M4.674,37.489c-0.206,0.166-0.456,0.298-0.734,0.298
		C3.022,37.786,2,36.38,2,34.363s1.022-3.424,1.939-3.424c0.167,0,0.335,0.047,0.504,0.139c-0.049,0.531-0.081,1.06-0.096,1.589
		c-0.001,0.044,0,0.088-0.002,0.132c-0.01,0.43-0.009,0.86,0.004,1.287c0.004,0.15,0.009,0.299,0.016,0.448
		c0.016,0.341,0.04,0.679,0.07,1.017c0.014,0.157,0.023,0.315,0.04,0.471c0.047,0.433,0.105,0.863,0.175,1.29
		C4.659,37.37,4.664,37.43,4.674,37.489z M37,20.499c4.963,0,9,4.037,9,9s-4.037,9-9,9c-3.598,0-6.7-2.126-8.139-5.184
		c-1.251,1.914-3.409,3.184-5.861,3.184c-3.859,0-7-3.141-7-7s3.141-7,7-7c2.452,0,4.61,1.27,5.861,3.184
		C30.3,22.626,33.402,20.499,37,20.499z M24.155,16.734c0.247-0.494,0.848-0.693,1.342-0.447c0.494,0.247,0.694,0.848,0.447,1.342
		c-1.226,2.45-3.703,3.868-6.272,3.868c-1.051,0-2.117-0.237-3.119-0.738c-0.494-0.247-0.694-0.848-0.447-1.342
		s0.848-0.692,1.342-0.447C19.912,20.203,22.922,19.199,24.155,16.734z M46.707,45.945C45.775,46.876,44.425,47.41,43,47.41
		s-2.775-0.534-3.707-1.466c-1.18-1.178-3.406-1.178-4.586,0C33.775,46.876,32.425,47.41,31,47.41s-2.775-0.534-3.707-1.466
		c-1.18-1.178-3.406-1.178-4.586,0c-1.024,1.025-2.463,1.543-3.875,1.543c-1.322,0-2.622-0.454-3.539-1.371
		c-0.391-0.391-0.391-1.023,0-1.414s1.023-0.391,1.414,0c1.134,1.134,3.362,1.052,4.586-0.172c1.939-1.939,5.475-1.939,7.414,0
		c1.18,1.178,3.406,1.178,4.586,0c1.939-1.939,5.475-1.939,7.414,0c1.18,1.178,3.406,1.178,4.586,0c0.391-0.391,1.023-0.391,1.414,0
		S47.098,45.554,46.707,45.945z M47.497,20.077c-0.987,0.494-2.054,0.743-3.126,0.743c-0.745,0-1.492-0.12-2.219-0.362
		c-1.772-0.591-3.21-1.838-4.047-3.512c-0.247-0.494-0.047-1.095,0.447-1.342c0.494-0.245,1.094-0.047,1.342,0.447
		c0.598,1.196,1.625,2.087,2.891,2.509c1.265,0.422,2.62,0.327,3.817-0.272c0.493-0.245,1.094-0.047,1.342,0.447
		C48.191,19.23,47.991,19.83,47.497,20.077z M56.751,30.813c-0.138,0.034-0.282,0.031-0.436-0.001
		c-0.004-0.037-0.011-0.071-0.015-0.108c-0.068-0.627-0.152-1.254-0.267-1.88c-0.001-0.006-0.001-0.012-0.003-0.018
		c-0.004-0.022-0.01-0.043-0.014-0.065c-0.141-0.754-0.304-1.478-0.482-2.181c-0.013-0.05-0.028-0.099-0.041-0.149
		c-0.189-0.734-0.399-1.438-0.624-2.119c0.1-0.07,0.202-0.116,0.307-0.142c0.903-0.21,2.204,0.896,2.674,2.88
		C58.314,28.993,57.645,30.6,56.751,30.813z"/>
	<path d="M37,26.5c1.657,0,3,1.343,3,3c0,1.657-1.343,3-3,3s-3-1.343-3-3C34,27.843,35.343,26.5,37,26.5z"/>
	<path d="M23,31.5c-1.105,0-2-0.896-2-2c0-1.105,0.895-2,2-2s2,0.895,2,2C25,30.604,24.105,31.5,23,31.5z"/>
</g>
<g>
</g>
<g>
</g>
<g>
</g>
<g>
</g>
<g>
</g>
<g>
</g>
<g>
</g>
<g>
</g>
<g>
</g>
<g>
</g>
<g>
</g>
<g>
</g>
<g>
</g>
<g>
</g>
<g>
</g>
</svg>
