<svg xmlns="http://www.w3.org/2000/svg" viewBox="0 0 391.33 94.04"><defs><style>.cls-1{fill:#5c2703;stroke:#88a80d;stroke-miterlimit:10;stroke-width:4px;}.cls-2{isolation:isolate;font-size:80px;font-family:Futura-Medium, Futura;font-weight:500;letter-spacing:0.02em;}</style></defs><g id="Layer_2" data-name="Layer 2"><g id="Layer_2-2" data-name="Layer 2"><path class="cls-1" d="M60.31,40.77a87,87,0,0,1-.64-21.93c.14-1.52.12-3.69,2.17-3.27,1.83.37,1.08,2.31,1,3.67-.5,9.88-.72,19.73,2.58,29.28C69.64,60.74,79.64,67.25,92.84,66.4c12.32-.8,20.1-8.24,22.67-21.84a76.55,76.55,0,0,0,.28-25c-.09-.66-.24-1.32-.3-2-.14-1.22-.26-2.65,1.1-2.91s1.71,1.11,2,2.33a75.1,75.1,0,0,1,1.31,15.91c0,8.34-1.06,16.54-5,23.73C109.6,66.3,101.3,69.74,91.44,70,74.5,70.44,62.87,59.6,60.31,40.77Z"/><path class="cls-1" d="M173.83,39.51a87,87,0,0,1-.64-21.93c.14-1.52.12-3.69,2.17-3.27,1.83.37,1.08,2.31,1,3.67-.5,9.88-.72,19.73,2.58,29.28,4.22,12.22,14.22,18.73,27.42,17.88,12.32-.8,20.1-8.24,22.67-21.84a76.55,76.55,0,0,0,.28-25c-.09-.66-.24-1.32-.3-2-.14-1.22-.26-2.65,1.1-2.91s1.71,1.11,2,2.33a75.2,75.2,0,0,1,1.31,15.91c0,8.34-1.06,16.54-5,23.73C223.12,65,214.82,68.48,205,68.74,188,69.18,176.39,58.34,173.83,39.51Z"/><path class="cls-1" d="M370.49,69.47a53.11,53.11,0,0,0,16.65-4.68c1.11-.51,2.75-1,2-3-.71-1.73-2-.52-3-.12-7.31,2.9-14.67,5.51-22.63,4.53-10.18-1.24-17.42-9.61-19.86-23-2.29-12.47,1.5-22,11.13-27.86A47.48,47.48,0,0,1,373.55,9c.52-.06,1.05-.08,1.57-.17.94-.17,2-.39,1.92-1.81s-1.28-1.33-2.26-1.33a44.64,44.64,0,0,0-12.3,2.56c-6.28,2-12.19,5.07-16.68,10.73-6,7.62-6.69,16.72-4.58,26.59C344.85,62.54,355.73,71.49,370.49,69.47Z"/><g id="Layer_6" data-name="Layer 6"><text class="cls-2" transform="translate(237.79 70.45)">RE</text></g><g id="Layer_5" data-name="Layer 5"><text class="cls-2" transform="translate(125.49 70.45)">T</text></g><g id="Layer_4" data-name="Layer 4"><text class="cls-2" transform="translate(0 70.95)">A</text></g></g></g></svg>