<svg xmlns="http://www.w3.org/2000/svg" viewBox="0 0 1288.26 224.55"><defs><style>.cls-1{fill:#88a80b;}</style></defs><g id="Layer_2" data-name="Layer 2"><g id="Layer_1-2" data-name="Layer 1"><path d="M836.91,219.58h-30V20.68c23.91.77,47.82-2.27,71.14,4.41,25.26,7.24,40,27.08,40.14,53.74.19,26.49-14.86,47.5-39.45,55.06l-4.26,1.36,61.35,84.53c-12.53,0-24,.13-35.38-.17-1.47,0-3.21-2.07-4.26-3.58-17.32-24.66-34.5-49.42-51.89-74-1.34-1.89-4-2.84-6-4.23l-1.31,1.16Zm.16-107.8c12.53.38,24.68.72,36-4.88C885,101,889,90.59,888.57,78c-.39-11.79-5.81-20.27-16.89-24.77s-22.72-4-34.61-3.75Z"/><path d="M193.85,221.56c-10.8,0-20.77.16-30.73-.18-1.47,0-3.46-2.2-4.19-3.84-5.89-13.22-11.69-26.49-17.18-39.88-1.39-3.39-3.2-4.34-6.67-4.32q-37.74.19-75.5,0c-3.42,0-5.33.86-6.79,4.18-5.89,13.41-12.19,26.64-18.13,40-1.33,3-2.91,4.22-6.33,4.12-9.11-.27-18.23-.09-28.33-.09L98.66,9.63C130.55,80.63,162,150.64,193.85,221.56ZM98.14,77.72,67.69,144.37H127.2Z"/><path d="M1075.56,125.13H999v66.15h79.18v28.25H968.76V21h109.35V49h-79v47.4h76.46Z"/><path class="cls-1" d="M775.12,88.31c-.13,24.83-2.34,49.26-11.81,72.53-14.63,36-41.1,55.75-80,58.86-31.16,2.49-59.32-4.24-82.55-26.13-18.24-17.2-27.85-39.16-32.72-63.32-5.83-28.93-6.83-58.13-4-87.49a46,46,0,0,1,.8-4.93c1.3-6.18,5.95-10,11.54-9.6,6.72.51,11.19,5.06,11,11.83-.28,9.65-1,19.28-1.4,28.93-1,26,1.06,51.58,10.43,76.13,13,34,42.91,52.93,79.31,51.19,20.91-1,39.26-7.07,53.22-23.31,11.91-13.85,17.17-30.59,20-48.25a245.62,245.62,0,0,0-.59-81,33.91,33.91,0,0,1-.4-7.46c.3-5.53,3.67-9.42,8.54-10.25,5.91-1,10.58,1.09,12.14,6.94a162.63,162.63,0,0,1,4.57,24.46C774.33,67.66,774.52,78,775.12,88.31Z"/><path class="cls-1" d="M401.14,93.06c-.26,24.31-2.39,48.23-11.46,71.09-15.46,39-45.31,59.48-87.34,60.36-27.31.58-52.17-5.92-73-24.33-18.54-16.38-29-37.56-34.34-61.29-7-30.63-8-61.66-4.86-92.85,1-9.37,4.61-13.25,11.78-13.22s11.77,4.69,11.45,12.11c-.41,9.64-1.21,19.27-1.51,28.91-.77,24.61,1.17,48.87,9.31,72.37,13.61,39.27,47.14,57.47,86.07,54.09,38.38-3.34,59.46-28.53,66.64-65.42,5.6-28.75,5.34-57.56.58-86.4A40.41,40.41,0,0,1,374,41c.14-5.81,3.75-10.07,9-10.94a10.3,10.3,0,0,1,12.1,8,171.05,171.05,0,0,1,4.13,23.56C400.27,72.1,400.53,82.6,401.14,93.06Z"/><path class="cls-1" d="M1202.3,200.23c28.69-.35,48.51-7.59,68-15.84,8.16-3.44,13.22-2.68,16.25,3.35,3.58,7.13,1.4,13.79-6.11,17.48-21.63,10.61-44.49,17-68.55,18.09-34.63,1.61-61.16-12.88-78.48-42.74-16.18-27.9-22.61-58.39-18.2-90.38,4.75-34.49,25.12-58.06,55.81-73A173.18,173.18,0,0,1,1232.76.11c10.06-.83,15.2,3.07,14.76,11.37-.27,5.22-3,8.78-8.8,10-9.1,1.91-18.4,3-27.43,5.1a134.37,134.37,0,0,0-42.07,17.93c-22.27,14.44-33.55,35.1-33.74,61.57a118.94,118.94,0,0,0,14.59,59C1162.86,188.33,1182.23,200.85,1202.3,200.23Z"/><path d="M536.78,49.32h-45v170.2H461.43v-170H415.87V21H536.78Z"/></g></g></svg>