<svg xmlns="http://www.w3.org/2000/svg" viewBox="0 0 327.25 92.93"><defs><style>.cls-1{font-size:80px;font-family:Futura-CondensedMedium, Futura;font-weight:500;letter-spacing:0.02em;}.cls-2{fill:#5c2703;stroke:#88a80d;stroke-miterlimit:10;stroke-width:4px;}</style></defs><title>Asset 3</title><g id="Layer_2" data-name="Layer 2"><g id="Name"><text class="cls-1" transform="translate(0 70.35)"><tspan xml:space="preserve">A    T    RE</tspan></text><path class="cls-2" d="M35.42,40.38a82.67,82.67,0,0,1-.68-21.93c.15-1.52.13-3.69,2.29-3.27,1.93.37,1.14,2.31,1.07,3.67-.53,9.88-.76,19.73,2.72,29.28,4.45,12.22,15,18.73,28.92,17.88,13-.8,21.2-8.24,23.91-21.84a72.65,72.65,0,0,0,.3-25c-.09-.66-.25-1.32-.32-2-.14-1.22-.27-2.65,1.16-2.91s1.81,1.11,2.09,2.33A71.35,71.35,0,0,1,98.27,32.5c0,8.34-1.12,16.54-5.27,23.73-5.59,9.68-14.35,13.12-24.75,13.38C50.39,70.05,38.12,59.21,35.42,40.38Z"/><path class="cls-2" d="M306.43,70.76a52.91,52.91,0,0,0,16.65-4.68c1.11-.51,2.75-1,2-2.95-.71-1.73-2-.52-3-.12-7.31,2.9-14.67,5.51-22.63,4.53-10.18-1.24-17.42-9.61-19.86-23-2.29-12.47,1.5-22,11.13-27.86a47.44,47.44,0,0,1,18.77-6.37c.52-.06,1.05-.08,1.57-.17.94-.17,2.05-.39,1.92-1.81S311.7,7,310.72,7a45.16,45.16,0,0,0-12.3,2.56c-6.28,2-12.19,5.07-16.68,10.73-6,7.62-6.69,16.72-4.58,26.59C280.79,63.83,291.67,72.78,306.43,70.76Z"/><path class="cls-2" d="M141.69,39.38a88.25,88.25,0,0,1-.91-21.88c.13-1.51.08-3.69,2.1-3.24,1.81.4,1.1,2.32,1.05,3.68-.38,9.84-.47,19.67,2.9,29.24,4.32,12.24,14.27,18.88,27.27,18.2,12.16-.64,19.72-8,22.09-21.5a77,77,0,0,0,0-25c-.1-.66-.25-1.31-.33-2-.14-1.21-.28-2.64,1.06-2.88s1.7,1.12,2,2.34a75.88,75.88,0,0,1,1.5,15.93c.11,8.32-.84,16.48-4.64,23.6-5.11,9.59-13.26,12.92-23,13.05C156.05,69.17,144.44,58.2,141.69,39.38Z"/></g></g></svg>